<?xml version="1.0" encoding="UTF-8" standalone="no"?>
<svg
   xmlns:dc="http://purl.org/dc/elements/1.1/"
   xmlns:cc="http://creativecommons.org/ns#"
   xmlns:rdf="http://www.w3.org/1999/02/22-rdf-syntax-ns#"
   xmlns:svg="http://www.w3.org/2000/svg"
   xmlns="http://www.w3.org/2000/svg"
   viewBox="0 0 408 163.2"
   height="163.2"
   width="408"
   xml:space="preserve"
   id="svg2"
   version="1.1"><metadata
     id="metadata8"><rdf:RDF><cc:Work
         rdf:about=""><dc:format>image/svg+xml</dc:format><dc:type
           rdf:resource="http://purl.org/dc/dcmitype/StillImage" /></cc:Work></rdf:RDF></metadata><defs
     id="defs6" /><g
     transform="matrix(1.3333333,0,0,-1.3333333,0,163.2)"
     id="g10"><g
       transform="scale(0.1)"
       id="g12"><path
         id="path14"
         style="fill:#ffffff;fill-opacity:1;fill-rule:nonzero;stroke:none"
         d="m 1317,678.309 v 244.375 h 24.44 V 678.309 H 1317" /><path
         id="path16"
         style="fill:#ffffff;fill-opacity:1;fill-rule:nonzero;stroke:none"
         d="M 1516.01,678.309 V 787.23 c 0,17.918 -3.73,31.008 -11.17,39.278 -7.47,8.254 -17.58,12.39 -30.38,12.39 -29.33,0 -43.99,-16.992 -43.99,-50.972 V 678.309 h -24.44 v 178.39 h 24.44 v -19.547 c 10.94,15.825 26.3,23.739 46.08,23.739 21.88,0 37.99,-6.629 48.36,-19.899 10.35,-13.265 15.53,-34.558 15.53,-63.887 v -98.796 h -24.43" /><path
         id="path18"
         style="fill:#ffffff;fill-opacity:1;fill-rule:nonzero;stroke:none"
         d="m 1648.31,674.117 c -23.5,0 -43.98,10.352 -61.44,31.071 l 17.11,15.015 c 13.73,-16.297 29.2,-24.437 46.43,-24.437 10.25,0 18.62,2.269 25.14,6.804 6.51,4.543 9.77,10.879 9.77,19.028 0,5.117 -1.17,9.715 -3.49,13.789 -2.33,4.066 -6,7.793 -11,11.172 -5,3.371 -9.48,5.988 -13.44,7.859 -3.96,1.855 -9.43,4.184 -16.4,6.977 -8.38,3.492 -15.26,6.636 -20.61,9.429 -5.35,2.789 -10.82,6.281 -16.4,10.473 -5.59,4.187 -9.72,9.129 -12.4,14.84 -2.67,5.695 -4.01,12.156 -4.01,19.375 0,13.488 5.35,24.433 16.05,32.812 10.71,8.375 24.56,12.567 41.55,12.567 23.51,0 42.83,-9.078 57.96,-27.227 l -16.07,-13.617 c -12.79,12.797 -26.99,19.199 -42.59,19.199 -10.24,0 -18.44,-2.094 -24.61,-6.281 -6.17,-4.188 -9.24,-9.895 -9.24,-17.11 0,-3.492 0.8,-6.75 2.44,-9.773 1.62,-3.027 3.48,-5.531 5.58,-7.508 2.09,-1.98 5.36,-4.187 9.77,-6.629 4.42,-2.445 7.91,-4.187 10.48,-5.238 2.56,-1.047 6.75,-2.738 12.57,-5.062 6.98,-2.793 12.45,-5.059 16.4,-6.809 3.97,-1.742 8.91,-4.426 14.85,-8.027 5.93,-3.614 10.47,-7.215 13.61,-10.825 3.14,-3.609 5.94,-8.261 8.38,-13.964 2.44,-5.704 3.67,-12.043 3.67,-19.024 0,-14.898 -5.41,-26.769 -16.24,-35.609 -10.82,-8.852 -25.43,-13.27 -43.82,-13.27" /><path
         id="path20"
         style="fill:#ffffff;fill-opacity:1;fill-rule:nonzero;stroke:none"
         d="m 1800.89,674.117 c -23.52,0 -35.27,13.613 -35.27,40.848 v 119.746 h -30.37 v 21.988 h 30.37 v 61.449 l 24.44,12.215 v -73.664 h 45.38 v -21.988 h -45.38 V 725.438 c 0,-9.079 1.28,-16.059 3.84,-20.95 2.56,-4.886 7.68,-7.328 15.37,-7.328 7.67,0 16.63,3.492 26.87,10.473 l -2.79,-25.488 c -10.01,-5.344 -20.83,-8.028 -32.46,-8.028" /><path
         id="path22"
         style="fill:#ffffff;fill-opacity:1;fill-rule:nonzero;stroke:none"
         d="m 1881.87,678.309 v 178.39 h 24.44 v -178.39 z m 23.75,219.589 c -3.03,-3.027 -6.88,-4.535 -11.53,-4.535 -4.66,0 -8.49,1.508 -11.52,4.535 -3.03,3.024 -4.53,6.86 -4.53,11.524 0,4.648 1.56,8.601 4.71,11.863 3.14,3.258 6.92,4.891 11.34,4.891 4.65,0 8.5,-1.633 11.53,-4.891 3.01,-3.262 4.53,-7.215 4.53,-11.863 0,-4.664 -1.52,-8.5 -4.53,-11.524" /><path
         id="path24"
         style="fill:#ffffff;fill-opacity:1;fill-rule:nonzero;stroke:none"
         d="m 2010.68,674.117 c -23.5,0 -35.25,13.613 -35.25,40.848 v 119.746 h -30.37 v 21.988 h 30.37 v 61.449 l 24.43,12.215 v -73.664 h 45.4 v -21.988 h -45.4 V 725.438 c 0,-9.079 1.28,-16.059 3.85,-20.95 2.56,-4.886 7.68,-7.328 15.35,-7.328 7.69,0 16.64,3.492 26.89,10.473 l -2.79,-25.488 c -10.01,-5.344 -20.83,-8.028 -32.48,-8.028" /><path
         id="path26"
         style="fill:#ffffff;fill-opacity:1;fill-rule:nonzero;stroke:none"
         d="m 2199.55,678.309 v 17.101 c -6.05,-7.914 -12.51,-13.433 -19.37,-16.582 -6.87,-3.137 -15.19,-4.711 -24.96,-4.711 -23.05,0 -39.75,6.516 -50.1,19.551 -10.35,13.031 -15.54,34.215 -15.54,63.535 v 99.496 h 24.44 V 747.781 c 0,-17.691 3.72,-30.722 11.18,-39.101 7.44,-8.379 17.45,-12.571 30.02,-12.571 29.55,0 44.33,16.989 44.33,50.973 V 856.699 H 2224 v -178.39 h -24.45" /><path
         id="path28"
         style="fill:#ffffff;fill-opacity:1;fill-rule:nonzero;stroke:none"
         d="m 2328.03,674.117 c -23.51,0 -35.26,13.613 -35.26,40.848 v 119.746 h -30.37 v 21.988 h 30.37 v 61.449 l 24.44,12.215 v -73.664 h 45.39 v -21.988 h -45.39 V 725.438 c 0,-9.079 1.28,-16.059 3.85,-20.95 2.55,-4.886 7.67,-7.328 15.35,-7.328 7.68,0 16.64,3.492 26.88,10.473 l -2.79,-25.488 c -10.01,-5.344 -20.83,-8.028 -32.47,-8.028" /><path
         id="path30"
         style="fill:#ffffff;fill-opacity:1;fill-rule:nonzero;stroke:none"
         d="m 1312.12,361.477 v 178.394 h 24.43 V 361.477 Z m 23.73,219.589 c -3.03,-3.027 -6.85,-4.535 -11.51,-4.535 -4.66,0 -8.51,1.508 -11.53,4.535 -3.02,3.024 -4.54,6.86 -4.54,11.524 0,4.648 1.58,8.605 4.72,11.863 3.14,3.258 6.92,4.891 11.35,4.891 4.66,0 8.48,-1.633 11.51,-4.891 3.03,-3.258 4.55,-7.215 4.55,-11.863 0,-4.664 -1.52,-8.5 -4.55,-11.524" /><path
         id="path32"
         style="fill:#ffffff;fill-opacity:1;fill-rule:nonzero;stroke:none"
         d="m 1506.22,361.477 v 108.921 c 0,17.918 -3.72,31.008 -11.17,39.278 -7.44,8.258 -17.57,12.39 -30.37,12.39 -29.32,0 -43.99,-16.992 -43.99,-50.968 V 361.477 h -24.43 v 178.394 h 24.43 V 520.32 c 10.94,15.825 26.3,23.739 46.09,23.739 21.87,0 38,-6.629 48.35,-19.899 10.35,-13.265 15.54,-34.558 15.54,-63.883 v -98.8 h -24.45" /><path
         id="path34"
         style="fill:#ffffff;fill-opacity:1;fill-rule:nonzero;stroke:none"
         d="m 1632.96,357.285 c -23.52,0 -35.27,13.617 -35.27,40.848 v 119.746 h -30.37 v 21.992 h 30.37 v 61.445 l 24.44,12.215 v -73.66 h 45.38 v -21.992 h -45.38 V 408.605 c 0,-9.078 1.28,-16.058 3.84,-20.949 2.56,-4.886 7.68,-7.328 15.37,-7.328 7.67,0 16.63,3.492 26.87,10.477 l -2.79,-25.489 c -10.01,-5.347 -20.83,-8.031 -32.46,-8.031" /><path
         id="path36"
         style="fill:#ffffff;fill-opacity:1;fill-rule:nonzero;stroke:none"
         d="m 1723.02,462.719 h 98.1 c -0.23,21.644 -4.94,36.945 -14.14,45.906 -9.19,8.961 -19.72,13.441 -31.59,13.441 -14.89,0 -27.12,-5.007 -36.65,-15.007 -9.55,-10.012 -14.78,-24.789 -15.72,-44.34 z m 52.37,-105.434 c -23.27,0 -42.01,9.078 -56.2,27.235 -14.2,18.152 -21.31,40.261 -21.31,66.328 0,29.09 7.11,51.898 21.31,68.425 14.19,16.524 32.93,24.786 56.2,24.786 20.48,0 37.36,-7.274 50.63,-21.817 13.27,-14.551 19.89,-36.019 19.89,-64.414 0,-6.281 -0.23,-11.984 -0.69,-17.101 h -121.5 c 2.09,-18.625 7.68,-33.403 16.76,-44.336 9.08,-10.946 21.06,-16.414 35.96,-16.414 14.2,0 27.57,4.656 40.15,13.964 l 13.26,-16.406 c -16.28,-13.5 -34.45,-20.25 -54.46,-20.25" /><path
         id="path38"
         style="fill:#ffffff;fill-opacity:1;fill-rule:nonzero;stroke:none"
         d="M 1893.04,361.477 V 601.66 l 24.44,11.871 V 361.477 h -24.44" /><path
         id="path40"
         style="fill:#ffffff;fill-opacity:1;fill-rule:nonzero;stroke:none"
         d="M 1980.31,361.477 V 601.66 l 24.44,11.871 V 361.477 h -24.44" /><path
         id="path42"
         style="fill:#ffffff;fill-opacity:1;fill-rule:nonzero;stroke:none"
         d="m 2066.19,361.477 v 178.394 h 24.44 V 361.477 Z m 23.74,219.589 c -3.02,-3.027 -6.86,-4.535 -11.51,-4.535 -4.67,0 -8.51,1.508 -11.52,4.535 -3.03,3.024 -4.55,6.86 -4.55,11.524 0,4.648 1.58,8.605 4.72,11.863 3.15,3.258 6.92,4.891 11.35,4.891 4.65,0 8.49,-1.633 11.51,-4.891 3.02,-3.258 4.54,-7.215 4.54,-11.863 0,-4.664 -1.52,-8.5 -4.54,-11.524" /><path
         id="path44"
         style="fill:#ffffff;fill-opacity:1;fill-rule:nonzero;stroke:none"
         d="m 2216.66,379.281 c 7.69,0 15.66,2.735 23.93,8.207 8.25,5.461 14.7,12.621 19.37,21.469 v 85.879 c -4.67,8.379 -11.23,15.016 -19.72,19.902 -8.5,4.883 -16.36,7.328 -23.58,7.328 -17.45,0 -30.66,-6.105 -39.62,-18.328 -8.96,-12.218 -13.45,-29.847 -13.45,-52.89 0,-22.34 4.95,-39.86 14.85,-52.539 9.88,-12.688 22.64,-19.028 38.22,-19.028 z m -16.05,-92.164 -11.18,19.199 c 26.76,1.395 45.22,6.286 55.34,14.664 10.12,8.379 15.19,19.551 15.19,33.512 v 27.235 c -10.95,-16.293 -27.23,-24.442 -48.88,-24.442 -20.48,0 -37.76,8.203 -51.84,24.617 -14.08,16.407 -21.13,39.391 -21.13,68.946 0,28.855 6.87,51.609 20.6,68.25 13.73,16.64 31.65,24.961 53.77,24.961 19.78,0 35.61,-6.981 47.48,-20.946 v 16.758 h 24.44 V 364.27 c 0,-49.106 -27.93,-74.825 -83.79,-77.153" /><path
         id="path46"
         style="fill:#ffffff;fill-opacity:1;fill-rule:nonzero;stroke:none"
         d="m 2356.66,462.719 h 98.11 c -0.24,21.644 -4.95,36.945 -14.14,45.906 -9.2,8.961 -19.73,13.441 -31.6,13.441 -14.91,0 -27.11,-5.007 -36.66,-15.007 -9.55,-10.012 -14.79,-24.789 -15.71,-44.34 z m 52.37,-105.434 c -23.29,0 -42.02,9.078 -56.22,27.235 -14.2,18.152 -21.29,40.261 -21.29,66.328 0,29.09 7.09,51.898 21.29,68.425 14.2,16.524 32.93,24.786 56.22,24.786 20.47,0 37.36,-7.274 50.62,-21.817 13.26,-14.551 19.9,-36.019 19.9,-64.414 0,-6.281 -0.23,-11.984 -0.7,-17.101 h -121.49 c 2.1,-18.625 7.68,-33.403 16.75,-44.336 9.08,-10.946 21.07,-16.414 35.97,-16.414 14.19,0 27.58,4.656 40.14,13.964 l 13.27,-16.406 c -16.3,-13.5 -34.44,-20.25 -54.46,-20.25" /><path
         id="path48"
         style="fill:#ffffff;fill-opacity:1;fill-rule:nonzero;stroke:none"
         d="m 2634.9,361.477 v 108.921 c 0,17.918 -3.73,31.008 -11.17,39.278 -7.45,8.258 -17.58,12.39 -30.37,12.39 -29.32,0 -43.98,-16.992 -43.98,-50.968 V 361.477 h -24.45 v 178.394 h 24.45 V 520.32 c 10.93,15.825 26.29,23.739 46.07,23.739 21.88,0 38,-6.629 48.35,-19.899 10.35,-13.265 15.53,-34.558 15.53,-63.883 v -98.8 h -24.43" /><path
         id="path50"
         style="fill:#ffffff;fill-opacity:1;fill-rule:nonzero;stroke:none"
         d="m 2775.25,357.285 c -21.65,0 -38.81,8.203 -51.51,24.617 -12.67,16.407 -19.02,39.274 -19.02,68.598 0,29.324 6.51,52.246 19.55,68.773 13.03,16.524 30.96,24.786 53.77,24.786 13.26,0 24.9,-3.262 34.9,-9.774 10.01,-6.519 17.46,-15.711 22.35,-27.578 l -22.35,-8.727 c -6.51,16.059 -18.49,24.086 -35.96,24.086 -31.19,0 -46.77,-23.855 -46.77,-71.566 0,-47.48 15.36,-71.219 46.08,-71.219 9.54,0 17.75,2.446 24.62,7.332 6.86,4.887 11.8,11.52 14.82,19.899 l 22.01,-8.379 c -4.19,-12.57 -11.87,-22.516 -23.04,-29.852 -11.17,-7.328 -24.34,-10.996 -39.45,-10.996" /><path
         id="path52"
         style="fill:#ffffff;fill-opacity:1;fill-rule:nonzero;stroke:none"
         d="m 2894.29,462.719 h 98.11 c -0.24,21.644 -4.96,36.945 -14.15,45.906 -9.19,8.961 -19.72,13.441 -31.6,13.441 -14.9,0 -27.11,-5.007 -36.66,-15.007 -9.54,-10.012 -14.78,-24.789 -15.7,-44.34 z m 52.36,-105.434 c -23.28,0 -42.01,9.078 -56.21,27.235 -14.2,18.152 -21.29,40.261 -21.29,66.328 0,29.09 7.09,51.898 21.29,68.425 14.2,16.524 32.93,24.786 56.21,24.786 20.48,0 37.37,-7.274 50.63,-21.817 13.26,-14.551 19.9,-36.019 19.9,-64.414 0,-6.281 -0.23,-11.984 -0.7,-17.101 h -121.5 c 2.1,-18.625 7.69,-33.403 16.76,-44.336 9.07,-10.946 21.07,-16.414 35.97,-16.414 14.19,0 27.58,4.656 40.13,13.964 l 13.28,-16.406 c -16.3,-13.5 -34.45,-20.25 -54.47,-20.25" /><path
         id="path54"
         style="fill:#ffffff;fill-opacity:1;fill-rule:nonzero;stroke:none"
         d="m 1324.68,145.891 h 98.1 c -0.23,21.648 -4.94,36.941 -14.14,45.898 -9.19,8.961 -19.72,13.441 -31.59,13.441 -14.89,0 -27.12,-5 -36.65,-15.011 -9.55,-10.008 -14.78,-24.778 -15.72,-44.328 z m 52.37,-105.4301 c -23.27,0 -42.01,9.0704 -56.2,27.2188 -14.2,18.1601 -21.31,40.2693 -21.31,66.3403 0,29.089 7.11,51.902 21.31,68.421 14.19,16.52 32.93,24.793 56.2,24.793 20.48,0 37.36,-7.273 50.63,-21.824 13.27,-14.539 19.89,-36.019 19.89,-64.41 0,-6.289 -0.23,-11.988 -0.69,-17.109 h -121.5 c 2.09,-18.621 7.68,-33.391 16.76,-44.3324 9.08,-10.9492 21.06,-16.4102 35.96,-16.4102 14.2,0 27.58,4.6524 40.15,13.9727 l 13.26,-16.4219 c -16.28,-13.5 -34.45,-20.2383 -54.46,-20.2383" /><path
         id="path56"
         style="fill:#ffffff;fill-opacity:1;fill-rule:nonzero;stroke:none"
         d="m 1534.15,40.4609 c -23.5,0 -35.25,13.6094 -35.25,40.8477 V 201.051 h -30.37 v 21.988 h 30.37 v 61.445 l 24.43,12.215 v -73.66 h 45.39 v -21.988 h -45.39 V 91.7695 c 0,-9.0703 1.28,-16.0507 3.85,-20.9414 2.56,-4.8867 7.67,-7.3398 15.35,-7.3398 7.69,0 16.64,3.5 26.89,10.4805 l -2.8,-25.4883 c -10.01,-5.3516 -20.83,-8.0196 -32.47,-8.0196" /><path
         id="path58"
         style="fill:#ffffff;fill-opacity:1;fill-rule:nonzero;stroke:none"
         d="m 1755.84,62.4492 c 9.07,0 17.57,2.4414 25.48,7.3321 7.91,4.8906 14.32,11.75 19.21,20.5976 v 89.0191 c -10.71,17.223 -25.61,25.832 -44.69,25.832 -16.3,0 -28.86,-6.16 -37.7,-18.492 -8.85,-12.347 -13.27,-29.918 -13.27,-52.718 0,-20.489 4.65,-37.5317 13.97,-51.1411 9.3,-13.6172 21.64,-20.4297 37,-20.4297 z m -2.79,-21.9883 c -22.81,0 -40.79,8.4297 -53.94,25.3086 -13.15,16.8594 -19.72,39.6215 -19.72,68.2505 0,29.089 6.57,51.902 19.72,68.421 13.15,16.52 31.13,24.793 53.94,24.793 17.68,0 33.51,-5.586 47.48,-16.754 v 74.004 l 24.44,12.215 V 44.6484 h -24.44 v 15.3633 c -13.04,-13.0429 -28.86,-19.5508 -47.48,-19.5508" /><path
         id="path60"
         style="fill:#ffffff;fill-opacity:1;fill-rule:nonzero;stroke:none"
         d="m 1948.55,62.4492 c 16.06,0 28.56,6.3399 37.53,19.0313 8.96,12.6797 13.43,30.1995 13.43,52.5395 0,22.339 -4.35,39.8 -13.08,52.359 -8.73,12.57 -21.36,18.851 -37.88,18.851 -16.53,0 -29.14,-6.101 -37.87,-18.32 -8.74,-12.23 -13.09,-29.969 -13.09,-53.238 0,-22.34 4.35,-39.8009 13.09,-52.3634 8.73,-12.5703 21.34,-18.8594 37.87,-18.8594 z m 0,-21.9883 c -23.27,0 -41.84,8.1993 -55.68,24.6094 -13.86,16.4102 -20.77,39.2697 -20.77,68.6017 0,29.09 6.97,51.949 20.94,68.598 13.96,16.628 32.48,24.964 55.51,24.964 23.27,0 41.83,-8.203 55.68,-24.625 13.85,-16.398 20.77,-39.257 20.77,-68.589 0,-29.098 -6.98,-51.9614 -20.95,-68.5981 -13.96,-16.6406 -32.47,-24.961 -55.5,-24.961" /><path
         id="path62"
         style="fill:#ffffff;fill-opacity:1;fill-rule:nonzero;stroke:none"
         d="M 2182.1,44.6484 V 153.57 c 0,17.918 -3.72,31.008 -11.17,39.27 -7.45,8.262 -17.57,12.39 -30.37,12.39 -29.33,0 -44,-16.98 -44,-50.968 V 44.6484 h -24.43 V 223.039 h 24.43 v -19.551 c 10.94,15.821 26.31,23.746 46.1,23.746 21.87,0 37.99,-6.644 48.35,-19.906 10.35,-13.258 15.53,-34.558 15.53,-63.887 V 44.6484 h -24.44" /><path
         id="path64"
         style="fill:#ffffff;fill-opacity:1;fill-rule:nonzero;stroke:none"
         d="M 2374.11,44.6484 V 153.57 c 0,17.918 -3.72,31.008 -11.17,39.27 -7.45,8.262 -17.57,12.39 -30.37,12.39 -29.33,0 -43.99,-16.98 -43.99,-50.968 V 44.6484 h -24.44 V 223.039 h 24.44 v -19.551 c 10.93,15.821 26.3,23.746 46.09,23.746 21.88,0 37.99,-6.644 48.35,-19.906 10.35,-13.258 15.54,-34.558 15.54,-63.887 V 44.6484 h -24.45" /><path
         id="path66"
         style="fill:#ffffff;fill-opacity:1;fill-rule:nonzero;stroke:none"
         d="m 2486.18,245.73 49.58,54.461 h 37.35 l -62.14,-54.461 z m -17.11,-99.839 h 98.11 c -0.23,21.648 -4.95,36.941 -14.14,45.898 -9.19,8.961 -19.73,13.441 -31.59,13.441 -14.9,0 -27.12,-5 -36.66,-15.011 -9.55,-10.008 -14.79,-24.778 -15.72,-44.328 z m 52.38,-105.4301 c -23.28,0 -42.01,9.0704 -56.21,27.2188 -14.2,18.1601 -21.3,40.2693 -21.3,66.3403 0,29.089 7.1,51.902 21.3,68.421 14.2,16.52 32.93,24.793 56.21,24.793 20.47,0 37.35,-7.273 50.62,-21.824 13.26,-14.539 19.9,-36.019 19.9,-64.41 0,-6.289 -0.24,-11.988 -0.7,-17.109 h -121.5 c 2.1,-18.621 7.68,-33.391 16.76,-44.3324 9.08,-10.9492 21.07,-16.4102 35.96,-16.4102 14.19,0 27.58,4.6524 40.15,13.9727 l 13.26,-16.4219 c -16.29,-13.5 -34.44,-20.2383 -54.45,-20.2383" /><path
         id="path68"
         style="fill:#ffffff;fill-opacity:1;fill-rule:nonzero;stroke:none"
         d="m 2650.26,145.891 h 98.1 c -0.23,21.648 -4.95,36.941 -14.14,45.898 -9.19,8.961 -19.73,13.441 -31.59,13.441 -14.9,0 -27.12,-5 -36.66,-15.011 -9.55,-10.008 -14.79,-24.778 -15.71,-44.328 z m 52.37,-105.4301 c -23.28,0 -42.01,9.0704 -56.21,27.2188 -14.19,18.1601 -21.29,40.2693 -21.29,66.3403 0,29.089 7.1,51.902 21.29,68.421 14.2,16.52 32.93,24.793 56.21,24.793 20.47,0 37.35,-7.273 50.62,-21.824 13.27,-14.539 19.9,-36.019 19.9,-64.41 0,-6.289 -0.24,-11.988 -0.7,-17.109 h -121.5 c 2.1,-18.621 7.69,-33.391 16.76,-44.3324 9.08,-10.9492 21.07,-16.4102 35.96,-16.4102 14.19,0 27.58,4.6524 40.15,13.9727 l 13.26,-16.4219 c -16.29,-13.5 -34.44,-20.2383 -54.45,-20.2383" /><path
         id="path70"
         style="fill:#ffffff;fill-opacity:1;fill-rule:nonzero;stroke:none"
         d="m 2868.8,40.4609 c -23.51,0 -43.98,10.3477 -61.44,31.0704 l 17.11,15.0078 c 13.73,-16.3008 29.19,-24.4375 46.42,-24.4375 10.25,0 18.62,2.2695 25.14,6.8086 6.52,4.5312 9.78,10.8711 9.78,19.0312 0,5.1094 -1.17,9.707 -3.49,13.7886 -2.33,4.071 -6,7.79 -11,11.168 -5.01,3.372 -9.49,5.981 -13.44,7.852 -3.96,1.859 -9.43,4.191 -16.41,6.98 -8.38,3.5 -15.25,6.629 -20.6,9.43 -5.35,2.789 -10.82,6.281 -16.4,10.469 -5.59,4.191 -9.73,9.133 -12.41,14.84 -2.67,5.703 -4,12.16 -4,19.371 0,13.5 5.35,24.449 16.05,32.832 10.71,8.367 24.55,12.562 41.55,12.562 23.5,0 42.82,-9.086 57.95,-27.234 l -16.06,-13.621 c -12.8,12.801 -27,19.199 -42.6,19.199 -10.23,0 -18.43,-2.09 -24.61,-6.277 -6.17,-4.192 -9.24,-9.891 -9.24,-17.11 0,-3.48 0.81,-6.742 2.44,-9.769 1.63,-3.031 3.48,-5.531 5.58,-7.512 2.1,-1.969 5.36,-4.18 9.78,-6.629 4.41,-2.441 7.91,-4.191 10.47,-5.242 2.56,-1.039 6.76,-2.73 12.58,-5.051 6.97,-2.797 12.44,-5.066 16.4,-6.808 3.96,-1.75 8.91,-4.418 14.85,-8.039 5.92,-3.602 10.46,-7.211 13.61,-10.821 3.14,-3.609 5.94,-8.261 8.38,-13.961 2.44,-5.711 3.66,-12.0387 3.66,-19.0309 0,-14.8984 -5.41,-26.7578 -16.24,-35.6093 -10.82,-8.8477 -25.43,-13.2579 -43.81,-13.2579" /><path
         id="path72"
         style="fill:#ffffff;fill-opacity:1;fill-rule:nonzero;stroke:none"
         d="m 914.902,361.402 c -23.086,-14.004 -51.14,-21.097 -83.379,-21.097 -88.992,0 -132.253,64.765 -132.253,198.004 0,60.664 11.687,107.679 34.765,139.746 21.699,30.183 51.981,44.863 92.625,44.863 22.949,0 43.887,-3.746 62.219,-11.145 16.504,-6.668 35.137,-19.519 55.41,-38.207 V 398.289 c 0,-12.844 -9.601,-24.894 -29.387,-36.887 z m 177.708,-135.297 -3.07,903.735 -145.251,-119.9 V 819.809 c -39.082,24.406 -83.937,36.785 -133.476,36.785 -52.161,0 -99.114,-13.539 -139.543,-40.219 -40.457,-26.672 -72.09,-65.352 -94.024,-114.977 -21.453,-48.5 -32.351,-107.468 -32.351,-175.257 0,-99.887 23.035,-178.43 68.437,-233.461 46.465,-56.282 112.098,-84.84 195.059,-84.84 51.25,0 97.742,14.031 138.339,41.707 v -23.442 h 145.88" /><path
         id="path74"
         style="fill:#ffffff;fill-opacity:1;fill-rule:nonzero;stroke:none"
         d="m 470.352,313.98 -0.008,0.012 c -0.246,0.274 -5.996,6.852 -5.996,37.442 v 399.164 c 0,69.925 -36.926,108.453 -103.977,108.453 -7.976,0 -44.324,-3.684 -44.324,-3.684 V 360.219 c 0,-42.082 3.992,-71.989 12.215,-91.406 8.906,-21.145 22.734,-36.942 41.086,-46.985 16.98,-9.269 38.543,-13.988 64.07,-13.988 30.285,0 54.512,3.281 74.082,9.988 l 15.305,5.274 V 307.98 H 500.41 c -24.285,0 -29.824,5.754 -30.058,6" /><path
         id="path76"
         style="fill:#ffffff;fill-opacity:1;fill-rule:nonzero;stroke:none"
         d="m 891.066,1127.65 c -40.363,40.08 -90.128,58.76 -147.929,55.54 -26.446,-1.48 -50.539,-6.78 -71.563,-15.74 -20.742,-8.87 -39.914,-19.65 -57.023,-32.03 -16.863,-12.16 -53.692,-42.53 -53.692,-42.53 -32.363,-28.98 -59.441,-44.25 -80.566,-45.43 -39.344,-2.19 -66.719,24.27 -82.559,74.48 l -97.683,-79.91 c 11.082,-25.11 25.176,-47.319 42.168,-65.811 39.551,-42.992 86.414,-63.297 139.277,-60.348 22.567,1.262 44.883,6.738 66.317,16.285 21.339,9.473 95.937,67.539 95.937,67.539 0.031,0 35.703,27.135 51.516,36.785 14.882,9.03 32.429,14.18 52.148,15.28 32.441,1.81 55.672,-9.04 74.09,-32.1 l 95.723,79.49 c 0,0 -16.661,19.07 -26.161,28.5" /><path
         id="path78"
         style="fill:#ffffff;fill-opacity:1;fill-rule:nonzero;stroke:none"
         d="m 42.8125,1030.7 c 0,67.75 36.875,105.07 103.8285,105.07 11.718,0 44.277,-3.57 44.277,-3.57 v -87.95 L 42.8242,915.445 42.8125,1030.7" /><path
         id="path80"
         style="fill:#ffffff;fill-opacity:1;fill-rule:nonzero;stroke:none"
         d="m 196.895,590.242 c -0.352,0.371 -5.977,6.957 -5.977,36.258 L 190.91,935.793 42.8242,812.801 v -177.77 c 0,-40.808 3.9844,-69.789 12.1953,-88.551 8.918,-20.539 22.7344,-35.859 41.0352,-45.515 16.9653,-8.996 38.4963,-13.559 63.9963,-13.559 29.804,0 54.668,3.254 73.914,9.657 l 15.324,5.074 v 82.289 h -22.363 c -23.653,0 -29.406,5.168 -30.031,5.816" /></g></g></svg>