<?xml version="1.0" encoding="UTF-8" standalone="no"?>
<svg
   xmlns:dc="http://purl.org/dc/elements/1.1/"
   xmlns:cc="http://creativecommons.org/ns#"
   xmlns:rdf="http://www.w3.org/1999/02/22-rdf-syntax-ns#"
   xmlns:svg="http://www.w3.org/2000/svg"
   xmlns="http://www.w3.org/2000/svg"
   height="163.2"
   width="408"
   xml:space="preserve"
   id="svg2"
   version="1.1"><metadata
     id="metadata8"><rdf:RDF><cc:Work
         rdf:about=""><dc:format>image/svg+xml</dc:format><dc:type
           rdf:resource="http://purl.org/dc/dcmitype/StillImage" /></cc:Work></rdf:RDF></metadata><defs
     id="defs6" /><g
     transform="matrix(1.3333333,0,0,-1.3333333,0,163.2)"
     id="g10"><g
       transform="scale(0.1)"
       id="g12"><path
         id="path14"
         style="fill:#231f20;fill-opacity:1;fill-rule:nonzero;stroke:none"
         d="m 1317,678.313 v 244.375 h 24.44 V 678.313 H 1317" /><path
         id="path16"
         style="fill:#231f20;fill-opacity:1;fill-rule:nonzero;stroke:none"
         d="m 1516.01,678.313 v 108.914 c 0,17.921 -3.73,31.015 -11.17,39.277 -7.47,8.262 -17.58,12.394 -30.38,12.394 -29.33,0 -43.99,-16.992 -43.99,-50.968 V 678.313 h -24.44 v 178.386 h 24.44 v -19.551 c 10.94,15.832 26.3,23.743 46.08,23.743 21.88,0 37.99,-6.633 48.36,-19.895 10.35,-13.269 15.53,-34.558 15.53,-63.887 v -98.796 h -24.43" /><path
         id="path18"
         style="fill:#231f20;fill-opacity:1;fill-rule:nonzero;stroke:none"
         d="m 1648.31,674.121 c -23.5,0 -43.98,10.352 -61.44,31.067 l 17.11,15.019 c 13.73,-16.301 29.2,-24.445 46.43,-24.445 10.25,0 18.62,2.277 25.14,6.808 6.51,4.539 9.77,10.879 9.77,19.032 0,5.117 -1.17,9.707 -3.49,13.789 -2.33,4.062 -6,7.793 -11,11.172 -5,3.371 -9.48,5.988 -13.44,7.855 -3.96,1.852 -9.43,4.187 -16.4,6.98 -8.38,3.485 -15.26,6.629 -20.61,9.422 -5.35,2.793 -10.82,6.289 -16.4,10.481 -5.59,4.187 -9.72,9.129 -12.4,14.832 -2.67,5.707 -4.01,12.16 -4.01,19.375 0,13.496 5.35,24.433 16.05,32.812 10.71,8.379 24.56,12.571 41.55,12.571 23.51,0 42.83,-9.075 57.96,-27.227 l -16.07,-13.613 c -12.79,12.793 -26.99,19.199 -42.59,19.199 -10.24,0 -18.44,-2.102 -24.61,-6.281 -6.17,-4.188 -9.24,-9.903 -9.24,-17.11 0,-3.496 0.8,-6.757 2.44,-9.773 1.62,-3.027 3.48,-5.539 5.58,-7.512 2.09,-1.98 5.36,-4.187 9.77,-6.629 4.42,-2.441 7.91,-4.191 10.48,-5.234 2.56,-1.043 6.75,-2.746 12.57,-5.07 6.98,-2.793 12.45,-5.055 16.4,-6.805 3.97,-1.738 8.91,-4.426 14.85,-8.027 5.93,-3.614 10.47,-7.219 13.61,-10.821 3.14,-3.613 5.94,-8.261 8.38,-13.965 2.44,-5.703 3.67,-12.043 3.67,-19.023 0,-14.902 -5.41,-26.77 -16.24,-35.617 -10.82,-8.848 -25.43,-13.262 -43.82,-13.262" /><path
         id="path20"
         style="fill:#231f20;fill-opacity:1;fill-rule:nonzero;stroke:none"
         d="m 1800.89,674.121 c -23.52,0 -35.27,13.613 -35.27,40.844 v 119.746 h -30.37 v 21.988 h 30.37 v 61.446 l 24.44,12.218 v -73.664 h 45.38 v -21.988 h -45.38 v -109.27 c 0,-9.082 1.28,-16.062 3.84,-20.949 2.56,-4.89 7.68,-7.332 15.37,-7.332 7.67,0 16.63,3.496 26.87,10.477 l -2.79,-25.489 c -10.01,-5.351 -20.83,-8.027 -32.46,-8.027" /><path
         id="path22"
         style="fill:#231f20;fill-opacity:1;fill-rule:nonzero;stroke:none"
         d="m 1881.87,678.313 v 178.386 h 24.44 V 678.313 Z m 23.75,219.589 c -3.03,-3.027 -6.88,-4.543 -11.53,-4.543 -4.66,0 -8.49,1.516 -11.52,4.543 -3.03,3.02 -4.53,6.856 -4.53,11.524 0,4.648 1.56,8.601 4.71,11.867 3.14,3.25 6.92,4.879 11.34,4.879 4.65,0 8.5,-1.629 11.53,-4.879 3.01,-3.266 4.53,-7.219 4.53,-11.867 0,-4.668 -1.52,-8.504 -4.53,-11.524" /><path
         id="path24"
         style="fill:#231f20;fill-opacity:1;fill-rule:nonzero;stroke:none"
         d="m 2010.68,674.121 c -23.5,0 -35.25,13.613 -35.25,40.844 v 119.746 h -30.37 v 21.988 h 30.37 v 61.446 l 24.43,12.218 v -73.664 h 45.4 v -21.988 h -45.4 v -109.27 c 0,-9.082 1.28,-16.062 3.85,-20.949 2.56,-4.89 7.68,-7.332 15.35,-7.332 7.69,0 16.64,3.496 26.89,10.477 l -2.79,-25.489 c -10.01,-5.351 -20.83,-8.027 -32.48,-8.027" /><path
         id="path26"
         style="fill:#231f20;fill-opacity:1;fill-rule:nonzero;stroke:none"
         d="m 2199.55,678.313 v 17.097 c -6.05,-7.906 -12.51,-13.437 -19.37,-16.582 -6.87,-3.133 -15.19,-4.707 -24.96,-4.707 -23.05,0 -39.75,6.516 -50.1,19.551 -10.35,13.027 -15.54,34.211 -15.54,63.539 v 99.488 h 24.44 V 747.785 c 0,-17.695 3.72,-30.722 11.18,-39.101 7.44,-8.379 17.45,-12.571 30.02,-12.571 29.55,0 44.33,16.985 44.33,50.969 V 856.699 H 2224 V 678.313 h -24.45" /><path
         id="path28"
         style="fill:#231f20;fill-opacity:1;fill-rule:nonzero;stroke:none"
         d="m 2328.03,674.121 c -23.51,0 -35.26,13.613 -35.26,40.844 v 119.746 h -30.37 v 21.988 h 30.37 v 61.446 l 24.44,12.218 v -73.664 h 45.39 v -21.988 h -45.39 v -109.27 c 0,-9.082 1.28,-16.062 3.85,-20.949 2.55,-4.89 7.67,-7.332 15.35,-7.332 7.68,0 16.64,3.496 26.88,10.477 l -2.79,-25.489 c -10.01,-5.351 -20.83,-8.027 -32.47,-8.027" /><path
         id="path30"
         style="fill:#231f20;fill-opacity:1;fill-rule:nonzero;stroke:none"
         d="m 1312.12,361.477 v 178.398 h 24.43 V 361.477 Z m 23.73,219.589 c -3.03,-3.027 -6.85,-4.531 -11.51,-4.531 -4.66,0 -8.51,1.504 -11.53,4.531 -3.02,3.028 -4.54,6.864 -4.54,11.524 0,4.648 1.58,8.601 4.72,11.863 3.14,3.262 6.92,4.895 11.35,4.895 4.66,0 8.48,-1.633 11.51,-4.895 3.03,-3.262 4.55,-7.215 4.55,-11.863 0,-4.66 -1.52,-8.496 -4.55,-11.524" /><path
         id="path32"
         style="fill:#231f20;fill-opacity:1;fill-rule:nonzero;stroke:none"
         d="m 1506.22,361.477 v 108.925 c 0,17.918 -3.72,31.004 -11.17,39.278 -7.44,8.25 -17.57,12.39 -30.37,12.39 -29.32,0 -43.99,-16.992 -43.99,-50.976 V 361.477 h -24.43 v 178.398 h 24.43 v -19.551 c 10.94,15.821 26.3,23.739 46.09,23.739 21.87,0 38,-6.629 48.35,-19.903 10.35,-13.262 15.54,-34.558 15.54,-63.887 v -98.796 h -24.45" /><path
         id="path34"
         style="fill:#231f20;fill-opacity:1;fill-rule:nonzero;stroke:none"
         d="m 1632.96,357.285 c -23.52,0 -35.27,13.613 -35.27,40.852 v 119.746 h -30.37 v 21.992 h 30.37 v 61.445 l 24.44,12.215 v -73.66 h 45.38 v -21.992 h -45.38 V 408.605 c 0,-9.074 1.28,-16.054 3.84,-20.949 2.56,-4.883 7.68,-7.32 15.37,-7.32 7.67,0 16.63,3.484 26.87,10.465 l -2.79,-25.488 c -10.01,-5.34 -20.83,-8.028 -32.46,-8.028" /><path
         id="path36"
         style="fill:#231f20;fill-opacity:1;fill-rule:nonzero;stroke:none"
         d="m 1723.02,462.715 h 98.1 c -0.23,21.652 -4.94,36.957 -14.14,45.91 -9.19,8.965 -19.72,13.445 -31.59,13.445 -14.89,0 -27.12,-5.007 -36.65,-15.007 -9.55,-10.012 -14.78,-24.797 -15.72,-44.348 z m 52.37,-105.43 c -23.27,0 -42.01,9.082 -56.2,27.238 -14.2,18.153 -21.31,40.262 -21.31,66.329 0,29.089 7.11,51.894 21.31,68.425 14.19,16.524 32.93,24.786 56.2,24.786 20.48,0 37.36,-7.274 50.63,-21.817 13.27,-14.551 19.89,-36.023 19.89,-64.41 0,-6.289 -0.23,-11.996 -0.69,-17.113 h -121.5 c 2.09,-18.621 7.68,-33.399 16.76,-44.336 9.08,-10.938 21.06,-16.407 35.96,-16.407 14.2,0 27.57,4.649 40.15,13.965 l 13.26,-16.402 c -16.28,-13.508 -34.45,-20.258 -54.46,-20.258" /><path
         id="path38"
         style="fill:#231f20;fill-opacity:1;fill-rule:nonzero;stroke:none"
         d="M 1893.04,361.477 V 601.66 l 24.44,11.875 V 361.477 h -24.44" /><path
         id="path40"
         style="fill:#231f20;fill-opacity:1;fill-rule:nonzero;stroke:none"
         d="M 1980.31,361.477 V 601.66 l 24.44,11.875 V 361.477 h -24.44" /><path
         id="path42"
         style="fill:#231f20;fill-opacity:1;fill-rule:nonzero;stroke:none"
         d="m 2066.19,361.477 v 178.398 h 24.44 V 361.477 Z m 23.74,219.589 c -3.02,-3.027 -6.86,-4.531 -11.51,-4.531 -4.67,0 -8.51,1.504 -11.52,4.531 -3.03,3.028 -4.55,6.864 -4.55,11.524 0,4.648 1.58,8.601 4.72,11.863 3.15,3.262 6.92,4.895 11.35,4.895 4.65,0 8.49,-1.633 11.51,-4.895 3.02,-3.262 4.54,-7.215 4.54,-11.863 0,-4.66 -1.52,-8.496 -4.54,-11.524" /><path
         id="path44"
         style="fill:#231f20;fill-opacity:1;fill-rule:nonzero;stroke:none"
         d="m 2216.66,379.277 c 7.69,0 15.66,2.735 23.93,8.215 8.25,5.457 14.7,12.617 19.37,21.465 v 85.879 c -4.67,8.379 -11.23,15.019 -19.72,19.902 -8.5,4.883 -16.36,7.332 -23.58,7.332 -17.45,0 -30.66,-6.109 -39.62,-18.328 -8.96,-12.219 -13.45,-29.855 -13.45,-52.89 0,-22.344 4.95,-39.864 14.85,-52.539 9.88,-12.684 22.64,-19.036 38.22,-19.036 z m -16.05,-92.156 -11.18,19.199 c 26.76,1.395 45.22,6.278 55.34,14.657 10.12,8.378 15.19,19.55 15.19,33.515 v 27.238 c -10.95,-16.3 -27.23,-24.445 -48.88,-24.445 -20.48,0 -37.76,8.203 -51.84,24.621 -14.08,16.407 -21.13,39.387 -21.13,68.946 0,28.859 6.87,51.613 20.6,68.25 13.73,16.64 31.65,24.961 53.77,24.961 19.78,0 35.61,-6.981 47.48,-20.946 v 16.758 h 24.44 V 364.27 c 0,-49.102 -27.93,-74.825 -83.79,-77.149" /><path
         id="path46"
         style="fill:#231f20;fill-opacity:1;fill-rule:nonzero;stroke:none"
         d="m 2356.66,462.715 h 98.11 c -0.24,21.652 -4.95,36.957 -14.14,45.91 -9.2,8.965 -19.73,13.445 -31.6,13.445 -14.91,0 -27.11,-5.007 -36.66,-15.007 -9.55,-10.012 -14.79,-24.797 -15.71,-44.348 z m 52.37,-105.43 c -23.29,0 -42.02,9.082 -56.22,27.238 -14.2,18.153 -21.29,40.262 -21.29,66.329 0,29.089 7.09,51.894 21.29,68.425 14.2,16.524 32.93,24.786 56.22,24.786 20.47,0 37.36,-7.274 50.62,-21.817 13.26,-14.551 19.9,-36.023 19.9,-64.41 0,-6.289 -0.23,-11.996 -0.7,-17.113 h -121.49 c 2.1,-18.621 7.68,-33.399 16.75,-44.336 9.08,-10.938 21.07,-16.407 35.97,-16.407 14.19,0 27.58,4.649 40.14,13.965 l 13.27,-16.402 c -16.3,-13.508 -34.44,-20.258 -54.46,-20.258" /><path
         id="path48"
         style="fill:#231f20;fill-opacity:1;fill-rule:nonzero;stroke:none"
         d="m 2634.9,361.477 v 108.925 c 0,17.918 -3.73,31.004 -11.17,39.278 -7.45,8.25 -17.58,12.39 -30.37,12.39 -29.32,0 -43.98,-16.992 -43.98,-50.976 V 361.477 h -24.45 v 178.398 h 24.45 v -19.551 c 10.93,15.821 26.29,23.739 46.07,23.739 21.88,0 38,-6.629 48.35,-19.903 10.35,-13.262 15.53,-34.558 15.53,-63.887 v -98.796 h -24.43" /><path
         id="path50"
         style="fill:#231f20;fill-opacity:1;fill-rule:nonzero;stroke:none"
         d="m 2775.25,357.285 c -21.65,0 -38.81,8.203 -51.51,24.621 -12.67,16.407 -19.02,39.266 -19.02,68.594 0,29.324 6.51,52.246 19.55,68.777 13.03,16.524 30.96,24.786 53.77,24.786 13.26,0 24.9,-3.262 34.9,-9.774 10.01,-6.523 17.46,-15.715 22.35,-27.578 l -22.35,-8.731 c -6.51,16.067 -18.49,24.09 -35.96,24.09 -31.19,0 -46.77,-23.855 -46.77,-71.57 0,-47.48 15.36,-71.223 46.08,-71.223 9.54,0 17.75,2.453 24.62,7.336 6.86,4.891 11.8,11.524 14.82,19.903 l 22.01,-8.379 c -4.19,-12.571 -11.87,-22.52 -23.04,-29.856 -11.17,-7.32 -24.34,-10.996 -39.45,-10.996" /><path
         id="path52"
         style="fill:#231f20;fill-opacity:1;fill-rule:nonzero;stroke:none"
         d="m 2894.29,462.715 h 98.11 c -0.24,21.652 -4.96,36.957 -14.15,45.91 -9.19,8.965 -19.72,13.445 -31.6,13.445 -14.9,0 -27.11,-5.007 -36.66,-15.007 -9.54,-10.012 -14.78,-24.797 -15.7,-44.348 z m 52.36,-105.43 c -23.28,0 -42.01,9.082 -56.21,27.238 -14.2,18.153 -21.29,40.262 -21.29,66.329 0,29.089 7.09,51.894 21.29,68.425 14.2,16.524 32.93,24.786 56.21,24.786 20.48,0 37.37,-7.274 50.63,-21.817 13.26,-14.551 19.9,-36.023 19.9,-64.41 0,-6.289 -0.23,-11.996 -0.7,-17.113 h -121.5 c 2.1,-18.621 7.69,-33.399 16.76,-44.336 9.07,-10.938 21.07,-16.407 35.97,-16.407 14.19,0 27.58,4.649 40.13,13.965 l 13.28,-16.402 c -16.3,-13.508 -34.45,-20.258 -54.47,-20.258" /><path
         id="path54"
         style="fill:#231f20;fill-opacity:1;fill-rule:nonzero;stroke:none"
         d="m 1324.68,145.891 h 98.1 c -0.23,21.648 -4.94,36.941 -14.14,45.91 -9.19,8.949 -19.72,13.437 -31.59,13.437 -14.89,0 -27.12,-5 -36.65,-15.008 -9.55,-10.011 -14.78,-24.789 -15.72,-44.339 z m 52.37,-105.4301 c -23.27,0 -42.01,9.0704 -56.2,27.2305 -14.2,18.1484 -21.31,40.2576 -21.31,66.3396 0,29.09 7.11,51.891 21.31,68.41 14.19,16.528 32.93,24.797 56.2,24.797 20.48,0 37.36,-7.277 50.63,-21.828 13.27,-14.539 19.89,-36.012 19.89,-64.398 0,-6.293 -0.23,-11.992 -0.69,-17.114 h -121.5 c 2.09,-18.617 7.68,-33.398 16.76,-44.3394 9.08,-10.9492 21.06,-16.3984 35.96,-16.3984 14.2,0 27.58,4.6406 40.15,13.9609 l 13.26,-16.4219 c -16.28,-13.4883 -34.45,-20.2383 -54.46,-20.2383" /><path
         id="path56"
         style="fill:#231f20;fill-opacity:1;fill-rule:nonzero;stroke:none"
         d="m 1534.15,40.4609 c -23.5,0 -35.25,13.6094 -35.25,40.8477 V 201.059 h -30.37 v 21.992 h 30.37 v 61.433 l 24.43,12.215 v -73.648 h 45.39 v -21.992 h -45.39 V 91.7813 c 0,-9.0704 1.28,-16.0625 3.85,-20.9532 2.56,-4.8789 7.67,-7.3281 15.35,-7.3281 7.69,0 16.64,3.4883 26.89,10.4805 l -2.8,-25.4922 c -10.01,-5.3477 -20.83,-8.0274 -32.47,-8.0274" /><path
         id="path58"
         style="fill:#231f20;fill-opacity:1;fill-rule:nonzero;stroke:none"
         d="m 1755.84,62.4492 c 9.07,0 17.57,2.4414 25.48,7.3399 7.91,4.8828 14.32,11.7422 19.21,20.5898 V 179.41 c -10.71,17.211 -25.61,25.828 -44.69,25.828 -16.3,0 -28.86,-6.168 -37.7,-18.5 -8.85,-12.34 -13.27,-29.91 -13.27,-52.707 0,-20.492 4.65,-37.531 13.97,-51.1521 9.3,-13.6172 21.64,-20.4297 37,-20.4297 z m -2.79,-21.9883 c -22.81,0 -40.79,8.4375 -53.94,25.3086 -13.15,16.8711 -19.72,39.6215 -19.72,68.2615 0,29.09 6.57,51.891 19.72,68.41 13.15,16.528 31.13,24.797 53.94,24.797 17.68,0 33.51,-5.59 47.48,-16.758 v 74.004 l 24.44,12.215 V 44.6484 h -24.44 v 15.3633 c -13.04,-13.0429 -28.86,-19.5508 -47.48,-19.5508" /><path
         id="path60"
         style="fill:#231f20;fill-opacity:1;fill-rule:nonzero;stroke:none"
         d="m 1948.55,62.4492 c 16.06,0 28.56,6.3399 37.53,19.0391 8.96,12.6719 13.43,30.1917 13.43,52.5427 0,22.34 -4.35,39.789 -13.08,52.36 -8.73,12.57 -21.36,18.847 -37.88,18.847 -16.53,0 -29.14,-6.109 -37.87,-18.316 -8.74,-12.231 -13.09,-29.981 -13.09,-53.25 0,-22.34 4.35,-39.7931 13.09,-52.3634 8.73,-12.5703 21.34,-18.8594 37.87,-18.8594 z m 0,-21.9883 c -23.27,0 -41.84,8.1993 -55.68,24.6094 -13.86,16.418 -20.77,39.2817 -20.77,68.6017 0,29.098 6.97,51.957 20.94,68.609 13.96,16.629 32.48,24.957 55.51,24.957 23.27,0 41.83,-8.207 55.68,-24.617 13.85,-16.41 20.77,-39.269 20.77,-68.59 0,-29.109 -6.98,-51.9724 -20.95,-68.6091 -13.96,-16.6406 -32.47,-24.961 -55.5,-24.961" /><path
         id="path62"
         style="fill:#231f20;fill-opacity:1;fill-rule:nonzero;stroke:none"
         d="M 2182.1,44.6484 V 153.578 c 0,17.922 -3.72,31 -11.17,39.262 -7.45,8.269 -17.57,12.398 -30.37,12.398 -29.33,0 -44,-16.988 -44,-50.968 V 44.6484 h -24.43 V 223.051 h 24.43 V 203.5 c 10.94,15.82 26.31,23.738 46.1,23.738 21.87,0 37.99,-6.636 48.35,-19.898 10.35,-13.27 15.53,-34.559 15.53,-63.891 V 44.6484 h -24.44" /><path
         id="path64"
         style="fill:#231f20;fill-opacity:1;fill-rule:nonzero;stroke:none"
         d="M 2374.11,44.6484 V 153.578 c 0,17.922 -3.72,31 -11.17,39.262 -7.45,8.269 -17.57,12.398 -30.37,12.398 -29.33,0 -43.99,-16.988 -43.99,-50.968 V 44.6484 h -24.44 V 223.051 h 24.44 V 203.5 c 10.93,15.82 26.3,23.738 46.09,23.738 21.88,0 37.99,-6.636 48.35,-19.898 10.35,-13.27 15.54,-34.559 15.54,-63.891 V 44.6484 h -24.45" /><path
         id="path66"
         style="fill:#231f20;fill-opacity:1;fill-rule:nonzero;stroke:none"
         d="m 2486.18,245.734 49.58,54.461 h 37.35 l -62.14,-54.461 z m -17.11,-99.843 h 98.11 c -0.23,21.648 -4.95,36.941 -14.14,45.91 -9.19,8.949 -19.73,13.437 -31.59,13.437 -14.9,0 -27.12,-5 -36.66,-15.008 -9.55,-10.011 -14.79,-24.789 -15.72,-44.339 z m 52.38,-105.4301 c -23.28,0 -42.01,9.0704 -56.21,27.2305 -14.2,18.1484 -21.3,40.2576 -21.3,66.3396 0,29.09 7.1,51.891 21.3,68.41 14.2,16.528 32.93,24.797 56.21,24.797 20.47,0 37.35,-7.277 50.62,-21.828 13.26,-14.539 19.9,-36.012 19.9,-64.398 0,-6.293 -0.24,-11.992 -0.7,-17.114 h -121.5 c 2.1,-18.617 7.68,-33.398 16.76,-44.3394 9.08,-10.9492 21.07,-16.3984 35.96,-16.3984 14.19,0 27.58,4.6406 40.15,13.9609 l 13.26,-16.4219 c -16.29,-13.4883 -34.44,-20.2383 -54.45,-20.2383" /><path
         id="path68"
         style="fill:#231f20;fill-opacity:1;fill-rule:nonzero;stroke:none"
         d="m 2650.26,145.891 h 98.1 c -0.23,21.648 -4.95,36.941 -14.14,45.91 -9.19,8.949 -19.73,13.437 -31.59,13.437 -14.9,0 -27.12,-5 -36.66,-15.008 -9.55,-10.011 -14.79,-24.789 -15.71,-44.339 z m 52.37,-105.4301 c -23.28,0 -42.01,9.0704 -56.21,27.2305 -14.19,18.1484 -21.29,40.2576 -21.29,66.3396 0,29.09 7.1,51.891 21.29,68.41 14.2,16.528 32.93,24.797 56.21,24.797 20.47,0 37.35,-7.277 50.62,-21.828 13.27,-14.539 19.9,-36.012 19.9,-64.398 0,-6.293 -0.24,-11.992 -0.7,-17.114 h -121.5 c 2.1,-18.617 7.69,-33.398 16.76,-44.3394 9.08,-10.9492 21.07,-16.3984 35.96,-16.3984 14.19,0 27.58,4.6406 40.15,13.9609 l 13.26,-16.4219 c -16.29,-13.4883 -34.44,-20.2383 -54.45,-20.2383" /><path
         id="path70"
         style="fill:#231f20;fill-opacity:1;fill-rule:nonzero;stroke:none"
         d="m 2868.8,40.4609 c -23.51,0 -43.98,10.3477 -61.44,31.0704 l 17.11,15.0078 c 13.73,-16.2891 29.19,-24.4375 46.42,-24.4375 10.25,0 18.62,2.2773 25.14,6.8203 6.52,4.5273 9.78,10.8672 9.78,19.0195 0,5.1172 -1.17,9.7188 -3.49,13.7886 -2.33,4.071 -6,7.79 -11,11.168 -5.01,3.372 -9.49,5.993 -13.44,7.852 -3.96,1.871 -9.43,4.191 -16.41,6.988 -8.38,3.492 -15.25,6.633 -20.6,9.422 -5.35,2.789 -10.82,6.289 -16.4,10.481 -5.59,4.187 -9.73,9.129 -12.41,14.828 -2.67,5.711 -4,12.16 -4,19.383 0,13.488 5.35,24.437 16.05,32.82 10.71,8.379 24.55,12.566 41.55,12.566 23.5,0 42.82,-9.078 57.95,-27.238 l -16.06,-13.609 c -12.8,12.789 -27,19.199 -42.6,19.199 -10.23,0 -18.43,-2.09 -24.61,-6.281 -6.17,-4.188 -9.24,-9.887 -9.24,-17.11 0,-3.488 0.81,-6.75 2.44,-9.777 1.63,-3.024 3.48,-5.524 5.58,-7.512 2.1,-1.969 5.36,-4.18 9.78,-6.629 4.41,-2.441 7.91,-4.191 10.47,-5.23 2.56,-1.051 6.76,-2.742 12.58,-5.063 6.97,-2.789 12.44,-5.066 16.4,-6.808 3.96,-1.739 8.91,-4.418 14.85,-8.032 5.92,-3.609 10.46,-7.218 13.61,-10.82 3.14,-3.617 5.94,-8.269 8.38,-13.969 2.44,-5.699 3.66,-12.0387 3.66,-19.0192 0,-14.8984 -5.41,-26.7695 -16.24,-35.621 -10.82,-8.8477 -25.43,-13.2579 -43.81,-13.2579" /><path
         id="path72"
         style="fill:#231f20;fill-opacity:1;fill-rule:nonzero;stroke:none"
         d="m 914.902,361.406 c -23.086,-14.004 -51.14,-21.101 -83.379,-21.101 -88.992,0 -132.253,64.765 -132.253,198.008 0,60.664 11.687,107.675 34.765,139.734 21.699,30.195 51.981,44.875 92.625,44.875 22.949,0 43.887,-3.75 62.219,-11.145 16.504,-6.668 35.137,-19.519 55.41,-38.211 V 398.293 c 0,-12.844 -9.601,-24.902 -29.387,-36.887 z M 1092.61,226.105 1089.54,1129.84 944.289,1009.93 V 819.805 c -39.082,24.406 -83.937,36.789 -133.476,36.789 -52.161,0 -99.114,-13.547 -139.543,-40.227 -40.457,-26.656 -72.09,-65.351 -94.024,-114.969 -21.453,-48.507 -32.351,-107.472 -32.351,-175.253 0,-99.891 23.035,-178.43 68.437,-233.469 46.465,-56.278 112.098,-84.836 195.059,-84.836 51.25,0 97.742,14.031 138.339,41.711 v -23.446 h 145.88" /><path
         id="path74"
         style="fill:#231f20;fill-opacity:1;fill-rule:nonzero;stroke:none"
         d="m 470.352,313.977 -0.008,0.019 c -0.246,0.262 -5.996,6.844 -5.996,37.442 v 399.16 c 0,69.929 -36.926,108.457 -103.977,108.457 -7.976,0 -44.324,-3.684 -44.324,-3.684 V 360.215 c 0,-42.078 3.992,-71.992 12.215,-91.406 8.906,-21.141 22.734,-36.942 41.086,-46.981 16.98,-9.269 38.543,-13.988 64.07,-13.988 30.285,0 54.512,3.269 74.082,9.988 l 15.305,5.274 V 307.98 H 500.41 c -24.285,0 -29.824,5.75 -30.058,5.997" /><path
         id="path76"
         style="fill:#231f20;fill-opacity:1;fill-rule:nonzero;stroke:none"
         d="m 891.066,1127.65 c -40.363,40.08 -90.128,58.77 -147.929,55.53 -26.446,-1.47 -50.539,-6.76 -71.563,-15.73 -20.742,-8.88 -39.914,-19.66 -57.023,-32.03 -16.863,-12.17 -53.692,-42.53 -53.692,-42.53 -32.363,-28.97 -59.441,-44.25 -80.566,-45.43 -39.344,-2.19 -66.719,24.26 -82.559,74.47 l -97.683,-79.9 c 11.082,-25.1 25.176,-47.319 42.168,-65.807 39.551,-43 86.414,-63.301 139.277,-60.352 22.567,1.258 44.883,6.738 66.317,16.289 21.339,9.465 95.937,67.528 95.937,67.528 0.031,0.011 35.703,27.142 51.516,36.792 14.882,9.03 32.429,14.18 52.148,15.28 32.441,1.81 55.672,-9.03 74.09,-32.11 l 95.723,79.5 c 0,0 -16.661,19.07 -26.161,28.5" /><path
         id="path78"
         style="fill:#231f20;fill-opacity:1;fill-rule:nonzero;stroke:none"
         d="m 42.8125,1030.7 c 0,67.75 36.875,105.07 103.8285,105.07 11.718,0 44.277,-3.57 44.277,-3.57 v -87.95 L 42.8242,915.449 42.8125,1030.7" /><path
         id="path80"
         style="fill:#231f20;fill-opacity:1;fill-rule:nonzero;stroke:none"
         d="m 196.895,590.234 c -0.352,0.383 -5.977,6.965 -5.977,36.27 L 190.91,935.793 42.8242,812.805 V 635.031 c 0,-40.812 3.9844,-69.785 12.1953,-88.547 8.918,-20.546 22.7344,-35.867 41.0352,-45.515 16.9653,-8.996 38.4963,-13.567 63.9963,-13.567 29.804,0 54.668,3.266 73.914,9.661 l 15.324,5.078 v 82.285 h -22.363 c -23.653,0 -29.406,5.164 -30.031,5.808" /></g></g></svg>