<?xml version="1.0" encoding="UTF-8" standalone="no"?>
<svg
   viewBox="-5 -5 145 135"
   id="svg2"
   version="1.1"
   xmlns:dc="http://purl.org/dc/elements/1.1/"
   xmlns:cc="http://creativecommons.org/ns#"
   xmlns:rdf="http://www.w3.org/1999/02/22-rdf-syntax-ns#"
   xmlns:svg="http://www.w3.org/2000/svg">
   <defs
     id="defs6" />
     <g
     transform="matrix(1.3333333,0,0,-1.3333333,-5.7083332,157.80523)"
     id="g10"><g style="fill:#ffffff;fill-opacity:1;fill-rule:nonzero;stroke:none"
       transform="scale(0.1)"
       id="g12"><path 
         d="m 914.902,361.406 c -23.086,-14.004 -51.14,-21.101 -83.379,-21.101 -88.996,0 -132.253,64.765 -132.253,198.008 0,60.664 11.699,107.675 34.761,139.734 21.699,30.195 51.985,44.875 92.629,44.875 22.949,0 43.887,-3.75 62.219,-11.145 16.504,-6.668 35.137,-19.519 55.406,-38.211 V 398.293 c 0,-12.844 -9.597,-24.902 -29.383,-36.887 z M 1092.61,226.105 1089.54,1129.84 944.285,1009.93 V 819.805 c -39.082,24.406 -83.933,36.789 -133.472,36.789 -52.161,0 -99.114,-13.547 -139.543,-40.227 -40.457,-26.656 -72.09,-65.351 -94.024,-114.969 -21.453,-48.507 -32.344,-107.472 -32.344,-175.253 0,-99.891 23.028,-178.43 68.438,-233.469 46.465,-56.278 112.09,-84.836 195.051,-84.836 51.25,0 97.742,14.031 138.339,41.711 v -23.446 h 145.88" /><path
         d="m 470.359,313.977 -0.015,0.019 c -0.246,0.262 -5.996,6.844 -5.996,37.442 v 399.16 c 0,69.929 -36.914,108.457 -103.965,108.457 -7.988,0 -44.336,-3.684 -44.336,-3.684 V 360.215 c 0,-42.078 4.004,-71.992 12.215,-91.406 8.906,-21.141 22.734,-36.942 41.086,-46.981 16.98,-9.269 38.543,-13.988 64.07,-13.988 30.281,0 54.512,3.269 74.094,9.988 l 15.293,5.274 V 307.98 H 500.41 c -24.277,0 -29.824,5.75 -30.051,5.997" /><path
         d="m 891.074,1127.65 c -40.359,40.08 -90.136,58.77 -147.937,55.53 -26.449,-1.47 -50.539,-6.76 -71.567,-15.73 -20.742,-8.88 -39.91,-19.66 -57.019,-32.03 -16.863,-12.17 -53.692,-42.53 -53.692,-42.53 -32.363,-28.97 -59.441,-44.25 -80.566,-45.43 -39.348,-2.19 -66.719,24.26 -82.559,74.47 l -97.683,-79.9 c 11.082,-25.1 25.176,-47.319 42.168,-65.807 39.551,-43 86.414,-63.301 139.273,-60.352 22.571,1.258 44.887,6.738 66.321,16.289 21.335,9.465 95.949,67.528 95.949,67.528 0.015,0.011 35.691,27.142 51.504,36.792 14.879,9.03 32.429,14.18 52.144,15.28 32.453,1.81 55.676,-9.03 74.094,-32.11 l 95.73,79.5 c 0,0 -16.668,19.07 -26.16,28.5" /><path
         d="m 42.8125,1030.7 c 0,67.75 36.875,105.07 103.8355,105.07 11.711,0 44.27,-3.57 44.27,-3.57 v -87.95 L 42.8242,915.449 42.8125,1030.7" /><path
         d="m 196.895,590.234 c -0.34,0.383 -5.977,6.965 -5.977,36.27 L 190.906,935.793 42.8242,812.805 V 635.031 c 0,-40.812 3.9922,-69.785 12.1953,-88.547 8.9141,-20.546 22.7461,-35.867 41.0352,-45.515 16.9723,-8.996 38.4963,-13.567 63.9963,-13.567 29.804,0 54.676,3.266 73.926,9.661 l 15.308,5.078 v 82.285 h -22.359 c -23.656,0 -29.406,5.164 -30.031,5.808" /></g></g></svg>
